<svg xmlns="http://www.w3.org/2000/svg" version="1.1" xmlns:xlink="http://www.w3.org/1999/xlink" xmlns:svgjs="http://svgjs.dev/svgjs" width="256" height="256"><svg version="1.1" xmlns="http://www.w3.org/2000/svg" xmlns:xlink="http://www.w3.org/1999/xlink" viewBox="0,0,256,256">
    <g fill="none" fill-rule="nonzero" stroke="none" stroke-width="1" stroke-linecap="butt" stroke-linejoin="miter" stroke-miterlimit="10" stroke-dasharray="" stroke-dashoffset="0" font-family="none" font-weight="none" font-size="none" text-anchor="none" style="mix-blend-mode: normal"><g transform="scale(5.33333,5.33333)"><path d="M32,44v-4.6l2.6,0.5c2.9,0.6 5.6,-1.5 5.8,-4.4l0.6,-6.5l2.9,-1.2c1,-0.4 1.4,-1.6 0.8,-2.6l-3.7,-6.2c-0.6,-7.6 -4.9,-15 -16,-15c-11.4,0 -17,8.4 -17,17c0,3.7 1.3,6.9 3.3,9.6c1.8,2.5 2.7,5.5 2.7,8.5v4.9z" fill="#ffb74d"></path><path d="M8,21c0,2.214 0.473,4.245 1.276,6.101c1.465,0.573 3.055,0.899 4.724,0.899c7.18,0 13,-5.82 13,-13c0,-4.428 -2.218,-8.334 -5.599,-10.681c-8.973,1.579 -13.401,9.044 -13.401,16.681z" fill="#ffcc80"></path><path d="M22.2,16.1c0.1,-0.4 0.1,-0.8 0.1,-1.1c0,-0.3 0,-0.8 -0.1,-1.1l2.3,-1.7c0.2,-0.2 0.3,-0.5 0.2,-0.7l-2.3,-3.9c-0.1,-0.2 -0.4,-0.3 -0.7,-0.2l-2.6,1.2c-0.6,-0.5 -1.3,-0.9 -2,-1.2l-0.3,-2.9c0,-0.3 -0.3,-0.5 -0.5,-0.5h-4.6c-0.2,0 -0.5,0.2 -0.5,0.5l-0.3,2.9c-0.7,0.2 -1.4,0.6 -2,1.1l-2.6,-1.2c-0.3,-0.1 -0.6,0 -0.7,0.2l-2.3,4c-0.1,0.2 0,0.5 0.2,0.7l2.3,1.7c-0.1,0.4 -0.1,0.8 -0.1,1.1c0,0.3 0,0.8 0.1,1.1l-2.3,1.7c-0.2,0.2 -0.3,0.5 -0.2,0.7l2.3,3.9c0.1,0.2 0.4,0.3 0.7,0.2l2.6,-1.2c0.6,0.5 1.3,0.9 2,1.2l0.3,2.9c0,0.3 0.3,0.5 0.5,0.5h4.5c0.3,0 0.5,-0.2 0.5,-0.5l0.3,-2.9c0.7,-0.3 1.4,-0.7 2,-1.2l2.6,1.2c0.3,0.1 0.6,0 0.7,-0.2l2.3,-3.9c0.1,-0.2 0.1,-0.6 -0.2,-0.7zM14,20.2c-2.9,0 -5.2,-2.3 -5.2,-5.2c0,-2.9 2.3,-5.2 5.2,-5.2c2.9,0 5.2,2.3 5.2,5.2c0,2.9 -2.3,5.2 -5.2,5.2" fill="#546e7a"></path><path d="M14,9c-3.3,0 -6,2.7 -6,6c0,3.3 2.7,6 6,6c3.3,0 6,-2.7 6,-6c0,-3.3 -2.7,-6 -6,-6M14,18c-1.7,0 -3,-1.3 -3,-3c0,-1.7 1.3,-3 3,-3c1.7,0 3,1.3 3,3c0,1.7 -1.3,3 -3,3" fill="#394a52"></path></g>
    </g>
</svg><style>@media (prefers-color-scheme: light) { :root { filter: none; } }
@media (prefers-color-scheme: dark) { :root { filter: none; } }
</style></svg>